<svg width="18" height="18" viewBox="0 0 18 18" fill="none" xmlns="http://www.w3.org/2000/svg">
<path d="M7.5 1.5H2.25C1.83579 1.5 1.5 1.83579 1.5 2.25V7.5C1.5 7.91421 1.83579 8.25 2.25 8.25H7.5C7.91421 8.25 8.25 7.91421 8.25 7.5V2.25C8.25 1.83579 7.91421 1.5 7.5 1.5Z" class="dark"/>
<path d="M7.5 9.75H2.25C1.83579 9.75 1.5 10.0858 1.5 10.5V15.75C1.5 16.1642 1.83579 16.5 2.25 16.5H7.5C7.91421 16.5 8.25 16.1642 8.25 15.75V10.5C8.25 10.0858 7.91421 9.75 7.5 9.75Z" class="light"/>
<path d="M15.75 1.5H10.5C10.0858 1.5 9.75 1.83579 9.75 2.25V7.5C9.75 7.91421 10.0858 8.25 10.5 8.25H15.75C16.1642 8.25 16.5 7.91421 16.5 7.5V2.25C16.5 1.83579 16.1642 1.5 15.75 1.5Z" class="light"/>
<path d="M15.75 9.75H10.5C10.0858 9.75 9.75 10.0858 9.75 10.5V15.75C9.75 16.1642 10.0858 16.5 10.5 16.5H15.75C16.1642 16.5 16.5 16.1642 16.5 15.75V10.5C16.5 10.0858 16.1642 9.75 15.75 9.75Z" class="light"/>
</svg>
