<svg width="20" height="20" viewBox="0 0 20 20" fill="none" xmlns="http://www.w3.org/2000/svg">
<path d="M17.5 6.66667H5.83333C5.61232 6.66667 5.40036 6.57887 5.24408 6.42259C5.0878 6.26631 5 6.05435 5 5.83333C5 5.61232 5.0878 5.40036 5.24408 5.24408C5.40036 5.0878 5.61232 5 5.83333 5H17.5C17.721 5 17.933 5.0878 18.0893 5.24408C18.2455 5.40036 18.3333 5.61232 18.3333 5.83333C18.3333 6.05435 18.2455 6.26631 18.0893 6.42259C17.933 6.57887 17.721 6.66667 17.5 6.66667ZM17.5 10.8333H5.83333C5.61232 10.8333 5.40036 10.7455 5.24408 10.5893C5.0878 10.433 5 10.221 5 10C5 9.77899 5.0878 9.56702 5.24408 9.41074C5.40036 9.25446 5.61232 9.16667 5.83333 9.16667H17.5C17.721 9.16667 17.933 9.25446 18.0893 9.41074C18.2455 9.56702 18.3333 9.77899 18.3333 10C18.3333 10.221 18.2455 10.433 18.0893 10.5893C17.933 10.7455 17.721 10.8333 17.5 10.8333ZM17.5 15H5.83333C5.61232 15 5.40036 14.9122 5.24408 14.7559C5.0878 14.5996 5 14.3877 5 14.1667C5 13.9457 5.0878 13.7337 5.24408 13.5774C5.40036 13.4211 5.61232 13.3333 5.83333 13.3333H17.5C17.721 13.3333 17.933 13.4211 18.0893 13.5774C18.2455 13.7337 18.3333 13.9457 18.3333 14.1667C18.3333 14.3877 18.2455 14.5996 18.0893 14.7559C17.933 14.9122 17.721 15 17.5 15ZM2.5 6.66667C2.39099 6.66537 2.2833 6.6427 2.18302 6.59993C2.08216 6.5577 1.98926 6.49854 1.90833 6.425C1.83474 6.34389 1.77544 6.25088 1.73296 6.14993C1.68922 6.05013 1.66663 5.94234 1.66663 5.83337C1.66663 5.7244 1.68922 5.61661 1.73296 5.5168C1.77524 5.41573 1.83456 5.32267 1.90833 5.24167C2.02537 5.12584 2.17416 5.04737 2.33585 5.01621C2.49754 4.98506 2.66484 5.00262 2.81653 5.06667C2.91854 5.10696 3.01193 5.16636 3.09167 5.24167C3.16518 5.32276 3.22436 5.41578 3.26667 5.51673C3.31067 5.61647 3.3334 5.72429 3.3334 5.8333C3.3334 5.94231 3.31067 6.05013 3.26667 6.14987C3.22417 6.25074 3.16501 6.34375 3.09167 6.425C3.01402 6.50254 2.92172 6.56384 2.82014 6.60534C2.71855 6.64683 2.60972 6.66768 2.5 6.66667ZM2.5 10.8333C2.39099 10.832 2.2833 10.8094 2.18302 10.7666C2.08216 10.7244 1.98926 10.6652 1.90833 10.5917C1.83474 10.5106 1.77544 10.4175 1.73296 10.3166C1.68922 10.2168 1.66663 10.109 1.66663 10C1.66663 9.89106 1.68922 9.78327 1.73296 9.68347C1.77329 9.58139 1.83282 9.48799 1.90833 9.40833C1.98925 9.33478 2.08214 9.27559 2.18299 9.23333C2.33477 9.16929 2.50213 9.15173 2.6639 9.18288C2.82566 9.21404 2.97453 9.2925 3.09167 9.40833C3.16692 9.48809 3.22631 9.58144 3.26667 9.6834C3.31067 9.78314 3.3334 9.89095 3.3334 9.99997C3.3334 10.109 3.31067 10.2168 3.26667 10.3165C3.22417 10.4174 3.16501 10.5104 3.09167 10.5916C3.01061 10.6652 2.91758 10.7243 2.8166 10.7666C2.71644 10.8093 2.60888 10.832 2.5 10.8333ZM2.5 15C2.39099 14.9987 2.2833 14.976 2.18302 14.9333C2.08216 14.891 1.98926 14.8319 1.90833 14.7583C1.7918 14.6417 1.71283 14.4929 1.68158 14.3311C1.65032 14.1692 1.66822 14.0017 1.73296 13.8501C1.77329 13.7481 1.83282 13.6547 1.90833 13.575C1.98784 13.4996 2.08108 13.4402 2.18299 13.4C2.38585 13.3162 2.61367 13.3162 2.81653 13.4C2.91852 13.4403 3.01188 13.4997 3.0916 13.575C3.16685 13.6548 3.22624 13.7481 3.2666 13.8501C3.33162 14.0016 3.34971 14.1691 3.31853 14.331C3.28734 14.493 3.20832 14.6418 3.09167 14.7583C3.01061 14.8319 2.91758 14.8911 2.8166 14.9333C2.71644 14.976 2.60888 14.9987 2.5 15Z" />
</svg>
