<svg width="24" height="24" viewBox="0 0 24 24" fill="none" xmlns="http://www.w3.org/2000/svg">
<path d="M7.75781 10.7578C8.35115 10.7578 8.93117 10.5819 9.42452 10.2522C9.91787 9.92258 10.3024 9.45404 10.5294 8.90586C10.7565 8.35769 10.8159 7.75449 10.7002 7.17254C10.5844 6.5906 10.2987 6.05605 9.87913 5.63649C9.45957 5.21694 8.92502 4.93121 8.34308 4.81546C7.76114 4.6997 7.15794 4.75911 6.60976 4.98618C6.06158 5.21324 5.59304 5.59776 5.2634 6.0911C4.93375 6.58445 4.75781 7.16447 4.75781 7.75781C4.75868 8.5532 5.07503 9.31575 5.63745 9.87818C6.19987 10.4406 6.96242 10.7569 7.75781 10.7578ZM7.75781 6.75781C7.95559 6.75781 8.14893 6.81646 8.31338 6.92634C8.47783 7.03623 8.606 7.1924 8.68169 7.37513C8.75737 7.55786 8.77718 7.75892 8.73859 7.9529C8.70001 8.14689 8.60477 8.32507 8.46491 8.46492C8.32506 8.60477 8.14688 8.70001 7.9529 8.7386C7.75892 8.77718 7.55785 8.75738 7.37512 8.68169C7.1924 8.60601 7.03622 8.47783 6.92634 8.31338C6.81646 8.14894 6.75781 7.9556 6.75781 7.75781C6.75798 7.49265 6.8634 7.2384 7.0509 7.0509C7.23839 6.86341 7.49265 6.75799 7.75781 6.75781ZM16.2422 13.2422C15.6488 13.2422 15.0688 13.4181 14.5755 13.7478C14.0821 14.0774 13.6976 14.546 13.4705 15.0941C13.2435 15.6423 13.1841 16.2455 13.2998 16.8275C13.4156 17.4094 13.7013 17.944 14.1209 18.3635C14.5404 18.7831 15.075 19.0688 15.6569 19.1845C16.2389 19.3003 16.8421 19.2409 17.3902 19.0138C17.9384 18.7868 18.407 18.4023 18.7366 17.9089C19.0662 17.4156 19.2422 16.8355 19.2422 16.2422C19.2413 15.4468 18.925 14.6843 18.3625 14.1218C17.8001 13.5594 17.0376 13.2431 16.2422 13.2422ZM16.2422 17.2422C16.0444 17.2422 15.8511 17.1835 15.6866 17.0737C15.5222 16.9638 15.394 16.8076 15.3183 16.6249C15.2426 16.4422 15.2228 16.2411 15.2614 16.0471C15.3 15.8531 15.3952 15.6749 15.5351 15.5351C15.6749 15.3952 15.8531 15.3 16.0471 15.2614C16.2411 15.2228 16.4421 15.2426 16.6249 15.3183C16.8076 15.394 16.9638 15.5222 17.0737 15.6866C17.1835 15.8511 17.2422 16.0444 17.2422 16.2422C17.242 16.5074 17.1366 16.7616 16.9491 16.9491C16.7616 17.1366 16.5073 17.242 16.2422 17.2422ZM19.707 4.293C19.6142 4.20012 19.5039 4.12644 19.3826 4.07617C19.2613 4.0259 19.1313 4.00003 19 4.00003C18.8686 4.00003 18.7386 4.0259 18.6173 4.07617C18.496 4.12644 18.3858 4.20012 18.2929 4.293L4.29294 18.293C4.19913 18.3856 4.12457 18.4959 4.07355 18.6175C4.02253 18.739 3.99605 18.8695 3.99563 19.0013C3.99522 19.1332 4.02089 19.2638 4.07115 19.3857C4.12141 19.5075 4.19528 19.6183 4.2885 19.7115C4.38173 19.8047 4.49247 19.8786 4.61435 19.9288C4.73623 19.9791 4.86685 20.0048 4.99869 20.0043C5.13052 20.0039 5.26097 19.9774 5.38253 19.9264C5.5041 19.8754 5.61436 19.8008 5.707 19.707L19.707 5.707C19.7999 5.61417 19.8735 5.50396 19.9238 5.38265C19.9741 5.26134 19.9999 5.13131 19.9999 5C19.9999 4.86869 19.9741 4.73867 19.9238 4.61736C19.8735 4.49605 19.7999 4.38583 19.707 4.293Z" fill="#24242B"/>
</svg>
